<svg xmlns="http://www.w3.org/2000/svg" width="2000" height="1125" viewBox="0 0 2000 1125" preserveAspectRatio="xMidYMid slice">
  <defs>
    <linearGradient id="gradA" x1="0" x2="1">
      <stop offset="0" stop-color="#087f8c"/>
      <stop offset="1" stop-color="#e2a640"/>
    </linearGradient>
    <filter id="glow" x="-50%" y="-50%" width="200%" height="200%">
      <feGaussianBlur stdDeviation="18" result="b"/>
      <feMerge><feMergeNode in="b"/><feMergeNode in="SourceGraphic"/></feMerge>
    </filter>
  </defs>
  <rect width="100%" height="100%" fill="#071725" />
  <g transform="translate(120,90)">
    <rect x="0" y="0" width="1760" height="945" rx="26" fill="url(#gradA)" opacity="0.08"/>
    <g transform="translate(80,60)">
      <rect x="0" y="0" width="600" height="380" rx="14" fill="#0e2a36" opacity="0.6" filter="url(#glow)"/>
      <rect x="650" y="24" width="740" height="280" rx="12" fill="#ffffff" opacity="0.06"/>
      <g transform="translate(680,340)">
        <rect x="0" y="0" width="680" height="120" rx="10" fill="#ffffff" opacity="0.04"/>
      </g>
      <g transform="translate(28,420)" fill="#eaf4f6" opacity="0.92">
        <rect x="0" y="0" width="420" height="18" rx="9" />
        <rect x="0" y="36" width="360" height="12" rx="6" />
      </g>
      <g transform="translate(120,120)">
        <circle cx="120" cy="80" r="48" fill="#19b9c3" opacity="0.22"/>
        <g transform="translate(240,24)" fill="#eaf4f6" opacity="0.9">
          <rect x="0" y="0" width="300" height="18" rx="8" />
          <rect x="0" y="36" width="220" height="12" rx="6" />
        </g>
      </g>
    </g>
  </g>
  <g transform="translate(140,60)">
    <text x="60" y="80" fill="#eaf4f6" font-family="Inter, Arial, sans-serif" font-size="40" font-weight="700">MadaraIT — AI-powered IT & RCM</text>
    <text x="60" y="120" fill="#9fb6c7" font-family="Inter, Arial, sans-serif" font-size="16">Secure infrastructure • Automation • Revenue operations</text>
  </g>
</svg>
